<?xml version="1.0" standalone="no"?>
<!DOCTYPE svg PUBLIC "-//W3C//DTD SVG 20010904//EN"
 "http://www.w3.org/TR/2001/REC-SVG-20010904/DTD/svg10.dtd">
<svg version="1.0" xmlns="http://www.w3.org/2000/svg"
 width="512.000000pt" height="512.000000pt" viewBox="0 0 512.000000 512.000000"
 preserveAspectRatio="xMidYMid meet">

<g transform="translate(0.000000,512.000000) scale(0.100000,-0.100000)"
fill="#000000" stroke="none">
<path d="M2320 5109 c-380 -34 -775 -167 -1110 -374 -296 -184 -596 -476 -786
-765 -168 -256 -295 -552 -359 -840 -48 -214 -59 -321 -59 -570 0 -257 13
-379 64 -588 31 -126 56 -164 120 -183 23 -7 810 -9 2392 -7 l2357 3 27 21
c48 35 63 66 88 179 98 437 84 895 -40 1301 -127 422 -328 760 -637 1073 -542
549 -1281 818 -2057 750z m456 -300 c581 -56 1136 -347 1506 -789 347 -414
538 -931 538 -1457 0 -127 -19 -332 -40 -431 l-12 -52 -2208 0 -2208 0 -6 27
c-40 194 -56 470 -37 658 28 275 103 540 220 780 226 461 585 820 1046 1046
370 181 793 258 1201 218z"/>
<path d="M2489 4398 c-70 -40 -79 -72 -79 -270 0 -149 3 -178 19 -208 56 -107
210 -107 263 0 15 29 18 63 18 208 0 153 -2 177 -20 212 -37 73 -130 100 -201
58z"/>
<path d="M1640 4172 c-49 -24 -80 -75 -80 -131 0 -40 12 -67 79 -185 102 -178
122 -198 198 -203 46 -3 65 0 91 17 42 26 76 99 68 144 -7 34 -149 291 -182
327 -45 50 -112 62 -174 31z"/>
<path d="M3345 4171 c-43 -26 -53 -40 -140 -194 -85 -151 -95 -190 -62 -254
27 -51 78 -76 143 -71 74 6 96 30 194 202 68 120 80 147 80 187 0 111 -124
186 -215 130z"/>
<path d="M1003 3540 c-83 -50 -96 -167 -25 -232 30 -28 235 -148 296 -173 24
-10 49 -14 70 -9 85 18 126 67 126 151 0 74 -31 104 -202 202 -158 90 -202
100 -265 61z"/>
<path d="M3856 3481 c-176 -100 -198 -122 -204 -195 -4 -44 0 -62 18 -91 37
-60 113 -87 176 -60 53 22 264 144 292 169 102 91 39 256 -97 256 -40 0 -67
-12 -185 -79z"/>
<path d="M2960 3160 c-47 -25 -526 -508 -539 -543 -48 -126 84 -250 202 -191
44 22 514 490 538 536 24 48 24 89 -1 138 -37 72 -128 99 -200 60z"/>
<path d="M779 2688 c-42 -24 -79 -82 -79 -124 0 -47 36 -108 79 -132 36 -20
52 -22 212 -22 196 0 225 8 266 69 48 71 20 175 -57 213 -29 15 -63 18 -210
18 -160 0 -178 -2 -211 -22z"/>
<path d="M3920 2692 c-50 -25 -80 -75 -80 -132 0 -57 30 -107 80 -132 29 -15
63 -18 208 -18 153 0 177 2 212 20 45 23 80 80 80 130 0 50 -35 107 -80 130
-35 18 -59 20 -212 20 -145 0 -179 -3 -208 -18z"/>
<path d="M849 1487 c-72 -48 -69 -19 -69 -731 0 -632 0 -639 21 -676 12 -21
38 -47 59 -59 36 -20 52 -21 281 -21 331 0 408 20 530 137 189 180 198 470 21
664 -46 50 -49 56 -36 74 8 11 24 51 36 88 53 176 -16 370 -167 472 -103 69
-135 75 -405 75 -230 0 -238 -1 -271 -23z m517 -310 c43 -40 55 -96 30 -149
-26 -54 -57 -66 -194 -74 l-122 -7 0 131 0 132 125 0 125 0 36 -33z m61 -544
c77 -36 115 -151 75 -229 -45 -88 -88 -104 -277 -104 l-145 0 0 175 0 175 156
0 c124 0 163 -3 191 -17z"/>
<path d="M2445 1494 c-40 -20 -64 -43 -80 -75 -12 -22 -235 -1227 -235 -1267
0 -9 9 -34 20 -57 53 -109 213 -111 263 -3 8 18 41 179 73 358 31 179 60 328
63 332 3 4 50 -145 105 -330 58 -200 108 -353 123 -375 28 -44 89 -77 143 -77
54 0 115 33 143 77 16 24 58 156 116 363 50 179 95 333 99 343 4 11 31 -110
71 -320 35 -188 72 -355 83 -375 21 -43 79 -78 128 -78 72 0 150 74 150 141 0
25 -227 1219 -237 1246 -33 91 -158 142 -242 99 -71 -37 -79 -57 -195 -466
-60 -212 -112 -388 -115 -392 -4 -4 -49 135 -100 310 -132 448 -139 468 -168
503 -48 57 -144 77 -208 43z"/>
<path d="M4109 1487 c-72 -48 -69 -19 -69 -726 0 -614 1 -636 20 -676 23 -47
80 -85 129 -85 51 0 108 35 131 80 19 38 20 58 20 677 0 587 -1 641 -18 673
-25 50 -75 80 -132 80 -32 0 -58 -7 -81 -23z"/>
</g>
</svg>
