<?xml version="1.0" standalone="no"?>
<!DOCTYPE svg PUBLIC "-//W3C//DTD SVG 20010904//EN"
 "http://www.w3.org/TR/2001/REC-SVG-20010904/DTD/svg10.dtd">
<svg version="1.0" xmlns="http://www.w3.org/2000/svg"
 width="512.000000pt" height="512.000000pt" viewBox="0 0 512.000000 512.000000"
 preserveAspectRatio="xMidYMid meet">

<g transform="translate(0.000000,512.000000) scale(0.100000,-0.100000)"
fill="#000000" stroke="none">
<path d="M722 5100 c-95 -25 -171 -69 -242 -140 -72 -72 -115 -147 -140 -246
-20 -76 -20 -115 -20 -2154 0 -2039 0 -2078 20 -2154 50 -196 203 -344 403
-391 59 -13 271 -15 1844 -13 l1778 3 69 24 c150 54 283 187 337 337 l24 69 3
2098 c3 2316 7 2159 -60 2295 -39 78 -131 175 -210 220 -31 18 -91 41 -134 52
-76 20 -113 20 -1838 19 -1704 0 -1763 -1 -1834 -19z m3653 -335 c36 -22 57
-45 77 -84 l28 -53 0 -2068 0 -2068 -28 -53 c-20 -39 -41 -62 -77 -84 l-48
-30 -1767 0 -1767 0 -48 30 c-36 22 -57 45 -77 84 l-28 54 2 2077 3 2077 30
48 c22 36 45 57 84 77 l54 28 1757 -2 1757 -3 48 -30z"/>
<path d="M1242 4620 c-95 -25 -171 -69 -242 -140 -72 -72 -115 -147 -140 -246
-19 -75 -20 -113 -20 -1314 0 -1201 1 -1239 20 -1314 50 -197 203 -344 403
-391 59 -14 218 -15 1324 -13 l1258 3 69 24 c150 54 283 187 337 337 l24 69 3
1258 c3 1388 5 1322 -60 1455 -39 78 -131 175 -210 220 -31 18 -91 41 -134 52
-75 19 -112 20 -1318 19 -1191 0 -1244 -1 -1314 -19z m2599 -328 c39 -20 62
-41 84 -77 l30 -48 3 -191 3 -191 -68 -23 c-79 -28 -135 -64 -187 -122 -77
-85 -87 -122 -186 -670 -50 -278 -96 -517 -101 -532 -29 -73 -146 -83 -189
-15 -7 12 -55 255 -106 540 -103 580 -111 604 -204 697 -205 206 -559 147
-684 -113 -31 -65 -44 -124 -126 -567 -50 -272 -95 -509 -101 -526 -5 -17 -20
-41 -34 -54 -45 -43 -141 -24 -165 33 -6 12 -52 255 -104 540 -103 567 -107
581 -192 676 -62 69 -165 120 -274 134 l-81 11 3 186 3 187 30 48 c22 36 45
57 84 77 l53 28 1228 0 1228 0 53 -28z m-1188 -835 c18 -8 38 -22 46 -31 9
-10 55 -235 112 -547 108 -591 112 -603 206 -697 167 -168 442 -168 606 1 94
96 99 112 203 682 55 301 100 524 111 545 17 34 18 9 21 -840 l2 -875 -27 -55
c-21 -40 -41 -62 -77 -85 l-49 -30 -1237 -3 -1237 -2 -54 28 c-39 20 -62 41
-84 77 l-30 48 -3 894 -2 893 43 0 c50 0 80 -18 95 -57 6 -15 52 -255 102
-533 83 -459 94 -511 125 -577 60 -123 174 -207 314 -233 128 -23 272 24 369
122 96 96 100 111 207 692 56 309 101 529 111 544 13 20 64 50 87 52 4 0 22
-6 40 -13z"/>
<path d="M1135 946 c-101 -44 -125 -178 -46 -257 65 -65 157 -65 222 0 124
124 -15 327 -176 257z"/>
<path d="M1615 946 c-101 -44 -125 -178 -46 -257 65 -65 157 -65 222 0 124
124 -15 327 -176 257z"/>
<path d="M2095 946 c-101 -44 -125 -178 -46 -257 65 -65 157 -65 222 0 124
124 -15 327 -176 257z"/>
<path d="M2735 946 c-67 -29 -105 -106 -91 -181 9 -47 59 -102 104 -115 25 -8
245 -10 674 -8 625 3 637 3 664 24 53 39 69 71 69 134 0 63 -16 95 -69 134
-27 21 -38 21 -674 23 -523 2 -653 0 -677 -11z"/>
</g>
</svg>
