<?xml version="1.0" standalone="no"?>
<!DOCTYPE svg PUBLIC "-//W3C//DTD SVG 20010904//EN"
 "http://www.w3.org/TR/2001/REC-SVG-20010904/DTD/svg10.dtd">
<svg version="1.0" xmlns="http://www.w3.org/2000/svg"
 width="512.000000pt" height="512.000000pt" viewBox="0 0 512.000000 512.000000"
 preserveAspectRatio="xMidYMid meet">

<g transform="translate(0.000000,512.000000) scale(0.100000,-0.100000)"
fill="#000000" stroke="none">
<path d="M1862 4700 c-41 -11 -99 -34 -130 -52 -73 -41 -179 -147 -220 -219
-39 -69 -72 -192 -72 -269 0 -77 33 -200 72 -269 41 -72 147 -178 219 -219 69
-39 192 -72 269 -72 73 0 197 32 263 67 68 37 185 153 225 224 39 69 72 192
72 269 0 77 -33 200 -72 269 -40 71 -158 188 -225 224 -68 36 -192 67 -267 66
-34 0 -94 -9 -134 -19z m260 -160 c63 -19 160 -91 201 -150 44 -63 77 -162 77
-230 0 -68 -33 -167 -77 -230 -41 -59 -138 -132 -201 -150 -170 -51 -352 13
-449 158 -55 81 -68 127 -68 232 1 70 5 95 27 140 56 119 135 192 255 231 63
21 165 21 235 -1z"/>
<path d="M3225 4695 l-25 -24 0 -2111 0 -2111 25 -24 24 -25 351 0 351 0 24
25 c33 32 33 78 0 110 l-24 25 -296 0 -295 0 0 95 0 95 135 0 c131 0 137 1
160 25 32 31 32 66 1 102 -24 28 -25 28 -160 31 l-136 4 0 88 0 88 136 4 c135
3 136 3 160 31 29 34 31 66 3 101 -20 26 -21 26 -160 26 l-139 0 0 95 0 95
295 0 296 0 24 25 c33 32 33 78 0 110 l-24 25 -296 0 -295 0 0 95 0 95 135 0
c131 0 137 1 160 25 32 31 32 66 1 102 -24 28 -25 28 -160 31 l-136 4 0 88 0
88 136 4 c135 3 136 3 160 31 29 34 31 66 3 101 -20 26 -21 26 -160 26 l-139
0 0 95 0 95 295 0 296 0 24 25 c16 15 25 36 25 55 0 19 -9 40 -25 55 l-24 25
-296 0 -295 0 0 95 0 95 135 0 c131 0 137 1 160 25 32 31 32 66 1 102 -24 28
-25 28 -160 31 l-136 4 0 88 0 88 136 4 c135 3 136 3 160 31 29 34 31 66 3
101 -20 26 -21 26 -160 26 l-139 0 0 95 0 95 295 0 296 0 24 25 c33 32 33 78
0 110 l-24 25 -296 0 -295 0 0 95 0 95 135 0 c131 0 137 1 160 25 32 31 32 66
1 102 -24 28 -25 28 -160 31 l-136 4 0 88 0 88 136 4 c135 3 136 3 160 31 29
34 31 66 3 101 -20 26 -21 26 -160 26 l-139 0 0 95 0 95 295 0 296 0 24 25
c16 15 25 36 25 55 0 19 -9 40 -25 55 l-24 25 -351 0 -351 0 -24 -25z"/>
<path d="M1565 3428 c-27 -5 -86 -27 -131 -48 -152 -73 -274 -232 -303 -394
-15 -81 -15 -1057 0 -1110 14 -51 80 -121 134 -141 29 -11 64 -16 109 -13 l65
3 3 -545 c3 -534 3 -546 24 -591 82 -177 321 -235 491 -118 l43 30 46 -32
c163 -112 394 -61 479 106 l30 59 3 545 3 546 65 -3 c45 -3 80 2 109 13 54 20
120 90 134 141 15 53 15 1029 0 1110 -38 212 -231 405 -443 443 -74 14 -790
13 -861 -1z m927 -190 c91 -45 147 -103 191 -196 l32 -67 3 -527 c3 -519 3
-527 -18 -548 -27 -27 -93 -27 -120 0 -19 19 -20 33 -20 515 l0 496 -25 24
c-15 16 -36 25 -55 25 -19 0 -40 -9 -55 -25 l-25 -24 0 -1113 c0 -1040 -1
-1115 -18 -1147 -29 -58 -63 -76 -142 -76 -79 0 -113 18 -142 76 -17 31 -18
84 -18 667 l0 633 -25 24 c-32 33 -78 33 -110 0 l-25 -24 0 -633 c0 -583 -1
-636 -18 -667 -29 -58 -63 -76 -142 -76 -79 0 -113 18 -142 76 -17 32 -18 107
-18 1147 l0 1113 -25 24 c-15 16 -36 25 -55 25 -19 0 -40 -9 -55 -25 l-25 -24
0 -496 c0 -482 -1 -496 -20 -515 -27 -27 -93 -27 -120 0 -21 21 -21 29 -18
548 l3 527 32 67 c17 37 50 87 72 111 44 48 135 101 197 116 22 5 216 9 435 8
l395 -2 76 -37z"/>
</g>
</svg>
