<?xml version="1.0" standalone="no"?>
<!DOCTYPE svg PUBLIC "-//W3C//DTD SVG 20010904//EN"
 "http://www.w3.org/TR/2001/REC-SVG-20010904/DTD/svg10.dtd">
<svg version="1.0" xmlns="http://www.w3.org/2000/svg"
 width="512.000000pt" height="512.000000pt" viewBox="0 0 512.000000 512.000000"
 preserveAspectRatio="xMidYMid meet">

<g transform="translate(0.000000,512.000000) scale(0.100000,-0.100000)"
fill="#000000" stroke="none">
<path d="M3958 4997 c-339 -67 -619 -125 -622 -128 -5 -5 161 -1123 180 -1213
l6 -29 237 4 236 4 41 -203 c23 -111 44 -205 46 -208 3 -2 20 69 37 158 18 90
37 184 43 211 l10 47 257 0 c142 0 260 2 262 5 3 2 -19 332 -48 732 -29 400
-52 731 -53 736 0 9 64 21 -632 -116z m502 -84 c0 -16 20 -271 45 -568 24
-297 43 -540 42 -542 -4 -4 -951 -72 -955 -69 -6 7 -127 1045 -122 1049 4 4
923 150 978 156 7 0 12 -11 12 -26z"/>
<path d="M4060 4773 c-53 -27 -72 -73 -66 -155 6 -80 34 -150 70 -173 31 -21
102 -16 140 9 66 43 52 244 -21 309 -31 27 -82 31 -123 10z m94 -71 c21 -41
37 -142 28 -177 -6 -20 -18 -33 -36 -40 -41 -14 -70 24 -85 110 -17 94 -2 135
50 135 21 0 32 -7 43 -28z"/>
<path d="M3772 4720 c-58 -36 -65 -105 -13 -138 14 -9 28 -17 30 -19 3 -2 -6
-15 -20 -29 -35 -37 -33 -98 4 -130 45 -39 135 -27 181 24 38 43 12 129 -46
148 -18 5 -18 6 2 31 45 57 7 133 -67 133 -21 0 -53 -9 -71 -20z m94 -45 c11
-16 11 -25 1 -45 -16 -32 -37 -36 -65 -10 -27 26 -27 35 -1 61 24 24 46 22 65
-6z m8 -147 c66 -29 32 -110 -41 -96 -28 5 -40 51 -19 82 19 29 25 31 60 14z"/>
<path d="M4162 4270 c-74 -17 -102 -82 -82 -191 13 -74 37 -120 75 -145 37
-24 109 -14 144 20 24 25 26 33 25 114 -1 151 -60 225 -162 202z m79 -96 c47
-105 32 -209 -29 -202 -39 5 -64 56 -70 144 -5 84 4 104 50 104 25 0 32 -6 49
-46z"/>
<path d="M3950 4241 c0 -15 -10 -20 -48 -26 -75 -10 -76 -11 -67 -107 l7 -85
54 1 c43 0 59 -4 75 -21 47 -46 -4 -101 -82 -88 -32 6 -38 4 -44 -15 -9 -28
-5 -31 44 -37 50 -7 124 19 146 50 22 31 19 89 -6 120 -20 26 -83 50 -117 45
-14 -2 -18 6 -20 43 l-3 47 55 6 c31 4 58 11 61 16 3 4 2 22 -1 39 -5 24 -12
31 -30 31 -17 0 -24 -6 -24 -19z"/>
<path d="M1435 3988 c-117 -22 -239 -106 -307 -212 -126 -196 -100 -447 66
-611 221 -221 586 -180 757 86 96 150 96 368 0 518 -112 174 -311 258 -516
219z"/>
<path d="M877 3259 c-139 -33 -282 -164 -363 -334 -47 -98 -64 -174 -64 -283
0 -185 60 -322 205 -468 101 -103 188 -163 339 -235 112 -53 351 -136 422
-146 123 -16 222 95 192 215 -16 66 -63 107 -150 132 -352 101 -563 229 -638
387 -43 92 -28 207 43 310 23 34 33 38 56 24 11 -7 7 -17 -17 -47 -62 -78 -79
-190 -42 -272 11 -24 46 -69 77 -100 99 -98 246 -172 488 -247 66 -20 135 -49
154 -62 61 -47 97 -160 71 -227 -9 -26 -9 -26 43 -26 108 0 214 -43 271 -110
66 -79 71 -99 74 -297 l4 -183 49 0 49 0 0 -523 c0 -596 -1 -591 76 -675 49
-56 125 -92 193 -92 105 0 209 66 252 162 l24 53 0 705 c0 787 4 736 -72 820
-21 24 -60 54 -88 66 -48 23 -59 24 -312 24 l-263 0 0 472 0 472 22 -22 c17
-17 21 -31 19 -65 -1 -30 3 -50 16 -64 18 -22 462 -273 482 -273 12 0 101
-116 101 -131 0 -5 -87 -10 -192 -11 l-193 -3 0 -90 0 -90 235 -3 236 -2 28
-68 c68 -158 153 -250 273 -295 47 -17 80 -21 179 -22 119 0 121 0 196 38 100
49 169 124 234 251 l49 96 628 0 627 0 0 95 0 95 -595 0 -594 0 25 66 c36 96
68 155 102 187 l29 28 6 -39 c9 -53 44 -101 92 -126 36 -19 61 -21 227 -24
264 -5 328 13 369 102 16 36 19 69 19 281 0 270 -3 283 -73 339 l-39 31 -206
3 c-251 4 -282 0 -329 -41 -58 -51 -63 -74 -63 -286 l0 -189 -35 -22 c-45 -28
-97 -113 -136 -222 l-32 -88 -507 0 c-454 0 -509 2 -514 16 -3 8 -22 40 -41
69 l-36 53 26 28 26 28 72 -17 c180 -42 490 -70 580 -53 51 9 112 69 126 123
25 91 -33 189 -124 212 -24 6 -83 11 -132 11 -77 0 -219 16 -336 36 -27 5 -41
14 -47 29 -12 30 -31 43 -277 179 -188 104 -218 117 -254 115 -36 -3 -47 2
-92 42 -29 24 -74 62 -100 84 l-48 39 -50 -53 c-61 -62 -137 -114 -210 -143
-68 -26 -224 -36 -300 -18 -127 29 -260 122 -329 230 l-32 50 -72 -1 c-39 -1
-88 -5 -109 -10z m1596 -386 c152 -84 232 -134 239 -149 9 -19 0 -41 -57 -146
-84 -152 -110 -188 -137 -188 -11 0 -124 57 -250 127 -174 97 -230 133 -234
150 -4 16 16 62 71 163 82 149 97 170 123 170 9 0 119 -57 245 -127z m1997
-153 l0 -170 -255 0 -255 0 0 170 0 170 255 0 255 0 0 -170z m-374 -245 c18
-19 23 -31 19 -48 -21 -69 -115 -59 -115 13 0 18 8 34 22 44 31 22 45 20 74
-9z m174 5 c39 -39 14 -100 -41 -100 -57 0 -78 89 -26 110 34 13 45 12 67 -10z
m-690 -464 c0 -14 -38 -89 -72 -142 -98 -156 -245 -224 -426 -195 -152 23
-243 92 -313 237 -21 44 -39 86 -39 92 0 9 106 12 425 12 234 0 425 -2 425 -4z"/>
<path d="M772 1753 c3 -248 4 -260 27 -303 35 -67 88 -118 148 -140 48 -18 78
-20 283 -20 l230 0 0 -542 c0 -506 2 -546 19 -584 26 -58 72 -106 128 -134 65
-34 178 -35 239 -3 53 28 99 74 127 127 l22 41 0 720 0 720 -30 55 c-33 60
-96 114 -153 130 -20 5 -73 10 -118 10 -70 0 -83 -3 -100 -21 -29 -33 -94 -59
-148 -59 -113 0 -455 125 -609 223 -32 21 -60 37 -63 37 -3 0 -4 -116 -2 -257z"/>
<path d="M230 615 l0 -555 543 2 542 3 3 553 2 552 -545 0 -545 0 0 -555z"/>
</g>
</svg>
