<?xml version="1.0" standalone="no"?>
<!DOCTYPE svg PUBLIC "-//W3C//DTD SVG 20010904//EN"
 "http://www.w3.org/TR/2001/REC-SVG-20010904/DTD/svg10.dtd">
<svg version="1.0" xmlns="http://www.w3.org/2000/svg"
 width="512.000000pt" height="512.000000pt" viewBox="0 0 512.000000 512.000000"
 preserveAspectRatio="xMidYMid meet">

<g transform="translate(0.000000,512.000000) scale(0.100000,-0.100000)"
fill="#000000" stroke="none">
<path d="M983 4965 c-422 -76 -744 -401 -818 -824 -22 -125 -22 -3037 0 -3162
76 -437 422 -772 856 -829 59 -8 544 -10 1604 -8 l1520 3 77 22 c383 109 632
358 741 741 l22 77 3 1520 c2 1060 0 1545 -8 1604 -57 434 -392 780 -829 856
-117 21 -3055 21 -3168 0z m3242 -138 c305 -96 517 -308 612 -612 l28 -90 0
-1565 0 -1565 -28 -88 c-97 -310 -304 -517 -614 -614 l-88 -28 -1565 0 -1565
0 -90 28 c-305 96 -517 308 -612 612 l-28 90 0 1565 0 1565 28 90 c106 339
374 577 714 635 26 4 739 7 1583 6 l1535 -1 90 -28z"/>
<path d="M1982 4280 c-201 -37 -388 -179 -477 -365 -88 -185 -86 -386 6 -575
41 -84 49 -92 532 -577 393 -394 496 -493 517 -493 20 0 124 99 517 493 485
486 491 493 532 577 60 124 74 192 68 325 -8 182 -63 310 -188 434 -123 123
-255 181 -429 189 -169 7 -298 -34 -432 -136 l-68 -51 -66 50 c-80 61 -119 80
-209 108 -80 25 -224 35 -303 21z m282 -139 c82 -29 132 -60 210 -131 36 -33
75 -60 86 -60 11 0 51 29 90 63 203 184 459 204 681 56 104 -70 176 -175 209
-305 33 -129 23 -236 -36 -364 -34 -72 -52 -92 -489 -530 l-455 -455 -454 455
c-488 489 -495 497 -531 637 -72 277 109 576 393 648 77 20 218 13 296 -14z"/>
<path d="M3495 2316 c-12 -9 -59 -132 -136 -357 l-117 -344 -117 -5 c-95 -4
-119 -8 -129 -22 -7 -10 -55 -130 -106 -268 -51 -138 -94 -249 -96 -247 -2 2
-38 95 -79 208 -106 287 -115 308 -136 319 -10 6 -69 10 -131 10 l-114 0 -118
146 c-65 80 -125 148 -133 151 -8 3 -26 2 -39 -3 -14 -5 -115 -127 -241 -290
-120 -155 -222 -282 -226 -283 -5 -2 -52 55 -104 126 -52 70 -102 134 -111
141 -10 8 -54 12 -129 12 -100 0 -115 -2 -133 -20 -25 -25 -25 -55 0 -80 17
-17 33 -20 109 -20 l90 0 118 -160 c119 -162 146 -186 182 -163 9 5 113 134
231 286 118 152 220 281 225 287 7 7 45 -31 118 -120 l107 -130 114 0 114 0
26 -67 c14 -38 66 -178 116 -312 49 -135 97 -253 107 -263 21 -23 55 -23 77 0
9 11 64 147 121 303 58 156 110 296 117 312 l10 27 111 0 c87 0 114 3 128 16
9 8 59 139 110 290 51 151 96 271 100 267 4 -4 49 -129 99 -278 51 -152 98
-275 107 -282 11 -9 57 -13 140 -13 110 0 125 2 143 20 11 11 20 29 20 40 0
11 -9 29 -20 40 -17 17 -33 20 -112 20 l-93 0 -115 342 c-63 188 -123 350
-132 360 -21 21 -47 23 -73 4z"/>
</g>
</svg>
