<?xml version="1.0" standalone="no"?>
<!DOCTYPE svg PUBLIC "-//W3C//DTD SVG 20010904//EN"
 "http://www.w3.org/TR/2001/REC-SVG-20010904/DTD/svg10.dtd">
<svg version="1.0" xmlns="http://www.w3.org/2000/svg"
 width="512.000000pt" height="512.000000pt" viewBox="0 0 512.000000 512.000000"
 preserveAspectRatio="xMidYMid meet">

<g transform="translate(0.000000,512.000000) scale(0.100000,-0.100000)"
fill="#000000" stroke="none">
<path d="M377 5110 c-177 -30 -337 -194 -367 -376 -13 -80 -13 -4268 0 -4348
30 -187 189 -346 376 -376 80 -13 4268 -13 4348 0 187 30 346 189 376 376 13
80 13 4268 0 4348 -30 187 -189 346 -376 376 -72 12 -4287 11 -4357 0z m4378
-247 c47 -25 85 -64 111 -113 18 -34 19 -107 19 -2190 0 -2083 -1 -2156 -19
-2190 -26 -49 -64 -88 -111 -113 l-40 -22 -2155 0 c-2083 0 -2156 1 -2190 19
-49 26 -88 64 -113 111 l-22 40 0 2155 c0 2083 1 2156 19 2190 36 69 92 114
161 131 17 4 991 6 2165 6 l2135 -2 40 -22z"/>
<path d="M2330 4409 c-460 -53 -938 -278 -1222 -577 -54 -56 -58 -64 -58 -108
l0 -48 353 -353 c382 -383 390 -390 457 -359 19 9 72 46 116 83 99 82 224 146
353 180 80 21 119 25 231 25 112 0 151 -4 231 -25 129 -34 254 -98 353 -180
44 -37 97 -74 116 -83 67 -31 75 -24 458 359 l352 353 0 49 c0 49 -1 51 -82
131 -308 301 -747 502 -1213 554 -106 12 -338 11 -445 -1z m390 -229 c366 -33
734 -179 1000 -398 30 -25 58 -48 62 -52 4 -3 -104 -117 -240 -253 l-248 -248
-54 42 c-88 66 -281 154 -405 186 -98 24 -127 27 -270 27 -148 0 -215 -8 -315
-39 -12 -4 -34 35 -90 161 -41 92 -87 179 -101 195 -49 53 -128 47 -173 -14
-34 -46 -25 -87 57 -267 l75 -164 -77 -48 c-42 -27 -85 -55 -96 -63 -20 -14
-34 -2 -268 233 l-247 247 63 51 c365 298 851 446 1327 404z"/>
</g>
</svg>
